<svg id="Layer_1" data-name="Layer 1" xmlns="http://www.w3.org/2000/svg" viewBox="0 0 149.23 145.38"><defs><style>.cls-1,.cls-3,.cls-4,.cls-5{fill:none;}.cls-2{fill:#f8ec1f;}.cls-2,.cls-3,.cls-4{stroke:#231f20;}.cls-2,.cls-3,.cls-4,.cls-5{stroke-linecap:round;stroke-miterlimit:10;}.cls-2,.cls-3{stroke-width:3px;}.cls-4{stroke-width:2px;}.cls-5{stroke:#000;stroke-width:4px;}</style></defs><title>partyhorse</title><path d="M70.27,102.24c-3.94-1.9-5.94-5-6.68-9.22-4.4,2.3-8.15,1.07-11.77-1.49a2.88,2.88,0,0,0-2.16-.32,7.55,7.55,0,0,0-3.53,12.46c1.37,1.49,3.29,2.47,4.88,3.78a2.39,2.39,0,0,1,1,1.68,2,2,0,0,1-1.45,1.21c-5.6.43-10.25-1.49-13.46-6.18a13.49,13.49,0,0,1-1-14.42,13.74,13.74,0,0,1,12.67-7.94c6-.14,12,0,18-0.08a3.75,3.75,0,0,0,2.36-1c2.78-2.72,5.45-5.56,8.51-8.72-1-.11-1.46-0.19-1.9-0.19-3.61,0-7.22,0-10.83,0-1.06,0-2.23-.14-2.17-1.33a2.89,2.89,0,0,1,1.72-1.9,21.45,21.45,0,0,0,8.32-5.18,13.25,13.25,0,0,0,3.16-14.36,37.06,37.06,0,0,1-1.42-5.28A10.41,10.41,0,0,1,80.1,32.32c1-.52,2-0.92,3.07-1.44A17.18,17.18,0,0,1,82.62,28a2.59,2.59,0,0,1,.6-2,2.39,2.39,0,0,1,2.07.31,44.18,44.18,0,0,1,3.46,2.85c0.32-1.11.29-2.68,1-3.23,1.35-1,2.36.6,3.14,1.43a9.25,9.25,0,0,0,8.33,3,38.12,38.12,0,0,1,6,0A7,7,0,0,1,114,38.33c-0.17,1.49-.79,2.19-2.45,1.68-3.46-1-6.25-.11-8.64,2.71-1.21,1.43-3,2.37-5,3.86a38.78,38.78,0,0,0,3.08,5.16,24.75,24.75,0,0,0,4.9,4.65c1.59,1.13,2.38,2.32,2.07,4.23a5.35,5.35,0,0,0,.06,1c0.72,0,1.37.09,2,.1,4.4,0,8.81,0,13.21,0,1.51,0,2.29.58,2.28,2.15,0,2.94,0,5.87,0,8.81a1.84,1.84,0,0,1-2.07,2.16,17.87,17.87,0,0,0-11,3.83c-0.92.74-1.88,1.11-2.7,0a1.58,1.58,0,0,1,.73-2.47c2.74-1.42,5.57-2.65,8.35-4a10.23,10.23,0,0,0,1.6-1.2c-0.5-.46-1-1.29-1.52-1.32a12.11,12.11,0,0,0-5,.22c-1.82.69-3.34,2.16-5,3.22a9,9,0,0,1-2.89,1.2c-3,7.59-8.63,12.9-15.64,17a1.59,1.59,0,0,0-.61,1.38c3.23,9.21.54,17.41-4.26,25.23a3.3,3.3,0,0,0-.38,3.5c0.59,1.26,1,2.64,1.44,3.95a9.36,9.36,0,0,0,4.53,5.32c3,1.51,6.14,2.9,9.72,2.77,4.15-.15,8.32,0,12.48,0,1,0,2.06,0,2.08,1.44s-1,1.56-2.15,1.55q-31.65,0-63.31,0c-1.15,0-2.17-.15-2.15-1.58s1.07-1.42,2.11-1.42q7.62,0,15.23,0c2.28,0,2.51-.37,1.57-2.44-1.3-2.89-2.57-5.8-3.94-8.66a3.31,3.31,0,0,1,0-3.09C65.29,113.68,67.73,108,70.27,102.24Zm9.89,4.67c0.74,2.07,1.23,3.76,1.95,5.35,0.61,1.37,2.11,1.36,2.81,0,2.5-4.91,3.65-10.07,2.57-15.58a21.93,21.93,0,0,0-5.28-10.3C81.78,85.86,82,84.76,82,83.94a7.84,7.84,0,0,1,2.58.21,6.15,6.15,0,0,1,1.6,1.72,4.1,4.1,0,0,0,5.29.9,28,28,0,0,0,10.23-11.25c0.84-1.78,1.52-3.42-.63-4.77a1.3,1.3,0,0,1-.44-0.78,17,17,0,0,0-6-9.62,2.09,2.09,0,0,1-.27-1.91,2,2,0,0,1,1.57-.86,2.87,2.87,0,0,1,1.54.86,20.7,20.7,0,0,1,6.06,9c0.41,1.14,1.79,2,2.93,2.72,0.36,0.22,1.41-.56,2.06-1,2.23-1.55,4.57-3,7.36-2.93a50.91,50.91,0,0,1,6.25.83V64.95H108.08c-3.08,0-3.4-.26-3.34-3.31a3.44,3.44,0,0,0-1.53-3.2,21.54,21.54,0,0,1-7.92-10.29c-0.48-1.4-1-2.43-2.68-2.76-1.16-.23-2.24-1.09-1.6-2.54,0.57-1.29,1.59-1.09,2.78-.58a5.36,5.36,0,0,0,6.62-1.49,10.62,10.62,0,0,1,3.23-2.9,50.26,50.26,0,0,1,6.7-1.91c-0.52-1.73-1.64-2.47-4.35-2.49-4.46,0-8.92,0-13.39-.07-2,0-4.06.5-5.79-1.6,0,0.79,0,1.15,0,1.5a82.09,82.09,0,0,1-.76,23.34c-1.07,5.9-2.23,11.88-6,16.73a134.14,134.14,0,0,1-10.2,11.24c-5,5.17-3.81,12,2.64,15,3.38,1.55,6.74,3.16,10.12,4.7,1.08,0.49,1.64,1.38,1.07,2.31-0.33.54-1.48,0.62-2.28,0.82A3.89,3.89,0,0,1,80.16,106.9Zm6.9,26.57a27.55,27.55,0,0,1-2.19-3.71c-1.17-2.88-2.14-5.83-3.18-8.76s-2.1-5.9-3.21-9a33.21,33.21,0,0,0-11.19,10.93,2.33,2.33,0,0,0,.06,1.82c1,2.3,2.11,4.53,3.06,6.84a2.85,2.85,0,0,0,3,1.91C78.1,133.46,82.8,133.48,87.07,133.48ZM83.65,34.53c-4.24,1.3-6.11,3.63-6,7.52a16.05,16.05,0,0,0,.92,4.79c2.64,7.43,1.64,14-4.24,19.56-0.68.65-1.4,1.26-2.37,2.14,1.42,0,2.45,0,3.48,0,3.54-.06,4.18-0.3,5-3.73a110.11,110.11,0,0,0,3-15.16C84.05,44.72,83.65,39.7,83.65,34.53Zm-40.59,70.7c-0.24-.41-0.5-0.8-0.73-1.22a10.81,10.81,0,0,1,1.51-13,11.54,11.54,0,0,1,6.73-3.37c1.81-.33,2.75,1.05,4,1.78a17.19,17.19,0,0,0,1.59.89,6.08,6.08,0,0,0,6.53-.68,2.6,2.6,0,0,0,1.15-3.14c-0.42-1.29-1.5-1.41-2.67-1.41-4,0-7.93,0-11.89,0a11.14,11.14,0,0,0-11,7.79C36.88,97.53,38.61,102.33,43.06,105.24ZM73.12,104c-1.18,2.62-2.4,5.27-3.54,7.95a3.36,3.36,0,0,0,.16,1.48,4.4,4.4,0,0,0,1.61-.34c1.7-1.18,3.35-2.45,5-3.74a1.54,1.54,0,0,0,.64-1.12C76.32,106.42,76.11,104.16,73.12,104Z"/><path class="cls-1" d="M80.16,106.9a3.89,3.89,0,0,0,1.31.55c0.8-.19,1.95-0.27,2.28-0.82,0.57-.92,0-1.81-1.07-2.31-3.39-1.54-6.74-3.15-10.12-4.7-6.46-3-7.63-9.85-2.64-15a134.14,134.14,0,0,0,10.2-11.24c3.72-4.85,4.88-10.84,6-16.73a82.09,82.09,0,0,0,.76-23.34c0-.35,0-0.71,0-1.5,1.73,2.11,3.82,1.58,5.79,1.6,4.46,0,8.92,0,13.39.07,2.71,0,3.84.76,4.35,2.49a50.26,50.26,0,0,0-6.7,1.91,10.62,10.62,0,0,0-3.23,2.9,5.36,5.36,0,0,1-6.62,1.49c-1.18-.5-2.2-0.71-2.78.58-0.64,1.45.44,2.31,1.6,2.54,1.65,0.33,2.2,1.36,2.68,2.76a21.54,21.54,0,0,0,7.92,10.29,3.44,3.44,0,0,1,1.53,3.2c-0.06,3,.26,3.31,3.34,3.31h14.05v2.11a50.91,50.91,0,0,0-6.25-.83c-2.79,0-5.12,1.38-7.36,2.93-0.65.45-1.7,1.23-2.06,1-1.14-.68-2.52-1.59-2.93-2.72a20.7,20.7,0,0,0-6.06-9,2.87,2.87,0,0,0-1.54-.86,2,2,0,0,0-1.57.86,2.09,2.09,0,0,0,.27,1.91,17,17,0,0,1,6,9.62,1.3,1.3,0,0,0,.44.78c2.14,1.35,1.46,3,.63,4.77A28,28,0,0,1,91.45,86.77a4.1,4.1,0,0,1-5.29-.9,6.15,6.15,0,0,0-1.6-1.72A7.84,7.84,0,0,0,82,83.94c0.06,0.82-.19,1.91.24,2.41a21.93,21.93,0,0,1,5.28,10.3c1.09,5.51-.07,10.67-2.57,15.58-0.7,1.38-2.2,1.39-2.81,0C81.4,110.66,80.9,109,80.16,106.9ZM95.7,34.47l-1.94,1.77c0.67,0.64,1.35,1.8,2,1.79s1.34-1.16,2-1.81Z"/><path class="cls-1" d="M87.07,133.48c-4.26,0-9,0-13.67,0a2.85,2.85,0,0,1-3-1.91c-1-2.31-2.1-4.54-3.06-6.84a2.33,2.33,0,0,1-.06-1.82A33.21,33.21,0,0,1,78.48,112c1.11,3.12,2.15,6.07,3.21,9s2,5.88,3.18,8.76A27.55,27.55,0,0,0,87.07,133.48Z"/><path class="cls-1" d="M83.65,34.53c0,5.17.4,10.19-.11,15.11a110.11,110.11,0,0,1-3,15.16c-0.86,3.43-1.5,3.68-5,3.73-1,0-2.05,0-3.48,0,1-.88,1.68-1.49,2.37-2.14,5.88-5.55,6.88-12.13,4.24-19.56a16.05,16.05,0,0,1-.92-4.79C77.54,38.16,79.41,35.83,83.65,34.53Z"/><path class="cls-1" d="M43.06,105.24c-4.45-2.9-6.18-7.71-4.7-12.36a11.14,11.14,0,0,1,11-7.79c4,0,7.93,0,11.89,0,1.16,0,2.24.12,2.67,1.41a2.6,2.6,0,0,1-1.15,3.14,6.08,6.08,0,0,1-6.53.68,17.19,17.19,0,0,1-1.59-.89c-1.28-.73-2.22-2.11-4-1.78A11.54,11.54,0,0,0,43.84,91a10.81,10.81,0,0,0-1.51,13C42.56,104.43,42.81,104.83,43.06,105.24Z"/><path class="cls-1" d="M73.12,104c3,0.13,3.2,2.39,3.85,4.23a1.54,1.54,0,0,1-.64,1.12c-1.62,1.29-3.27,2.55-5,3.74a4.4,4.4,0,0,1-1.61.34,3.36,3.36,0,0,1-.16-1.48C70.71,109.3,71.94,106.65,73.12,104Z"/><path d="M95.7,34.47l2.06,1.74c-0.67.65-1.32,1.8-2,1.81s-1.33-1.14-2-1.79Z"/><path class="cls-2" d="M79.61,34.55L92.05,29a0.49,0.49,0,0,0,.14-0.79L80,16.46a1,1,0,0,0-1.67.74l0.56,16.92A0.49,0.49,0,0,0,79.61,34.55Z"/><path class="cls-3" d="M80.56,10.73c-3,1.53-2,5.94-2,5.94s-1.21-6.13-5.31-7.21"/><path class="cls-3" d="M78.55,16.67c0-.6-4.67-6.19-9.14-1.67"/><line class="cls-4" x1="78.32" y1="25.64" x2="82.22" y2="19.1"/><line class="cls-4" x1="78.84" y1="33.1" x2="85.32" y2="22.09"/><line class="cls-4" x1="84.15" y1="32.21" x2="88.5" y2="24.96"/><line class="cls-5" x1="141.18" y1="135.2" x2="7.18" y2="135.2"/></svg>